<svg xmlns="http://www.w3.org/2000/svg" viewBox="0 0 792 612"><style>.st0{fill:#3f566d}.st1{fill:#fff}.st2{fill:#009ebf}.st3{fill:#40566d}</style><g id="Layer_1"><path class="st0" d="M350.4 127.7v27.9l45.6 26 45.6-26v-27.9zm45.6 57.8c-44 0-79.7 35.7-79.6 79.7 0 44 35.7 79.6 79.7 79.6s79.6-35.7 79.6-79.7-35.7-79.6-79.7-79.6z"/><path class="st1" d="M424.2 303.3L396 288.5l-28.2 14.8 5.4-31.4-22.8-22.2 31.5-4.6 14.1-28.5 14.1 28.5 31.5 4.6-22.8 22.2z"/><path class="st0" d="M152.6 410.9l1.1 5.5c4.2-2.5 7.5-4.1 10-4.9 2.5-.8 4.7-1.2 6.6-1.2 5.1 0 9.3 1.5 12.6 4.6 3.3 3 4.9 7.8 4.9 14.2v16.1c0 6-1.6 10.6-4.9 13.9-3.3 3.2-7.8 4.9-13.5 4.9-1.9 0-4.1-.2-6.6-.6-2.5-.4-5.6-1.3-9.1-2.7v23.6h-9.1V411h8zm1.1 41.2c3.2 1.3 6 2.2 8.2 2.6 2.2.4 4.5.6 6.6.6a16 16 0 0 0 3.9-.5c1.2-.3 2.3-.9 3.2-1.7.9-.8 1.6-1.9 2.2-3.3.5-1.4.8-3.1.8-5.1v-15c0-4-.8-6.8-2.5-8.3-1.7-1.5-3.9-2.3-6.7-2.3-1 0-2.1.2-3.5.5-1.3.4-2.7.8-4.2 1.4-1.4.6-2.9 1.2-4.3 2-1.4.7-2.7 1.5-3.8 2.3v26.8zm52.9-11.7v3.5c0 2.1.4 3.9 1.1 5.3.7 1.4 1.7 2.6 2.9 3.6s2.6 1.6 4.2 2.1c1.6.4 3.2.6 4.9.6 1.8 0 3.8-.4 6.1-1.1 2.3-.7 4.6-2.1 6.8-4.1l5.7 6.2c-2.7 2.8-5.7 4.6-8.9 5.7-3.3 1-6.6 1.5-9.9 1.5-3 0-5.8-.4-8.5-1.2-2.7-.8-5-2-7-3.6s-3.6-3.6-4.8-6c-1.2-2.4-1.7-5.2-1.7-8.4v-13.9c0-3.1.5-5.9 1.6-8.5 1.1-2.5 2.5-4.7 4.4-6.5 1.9-1.8 4.1-3.1 6.7-4.1 2.6-1 5.4-1.4 8.5-1.4 3.1 0 5.9.5 8.6 1.4 2.6.9 4.8 2.2 6.7 3.9 1.9 1.7 3.3 3.8 4.3 6.2 1 2.4 1.5 5.2 1.5 8.2v10.4h-33.2zm24-9.4c0-2.2-.3-4.1-1-5.6-.6-1.6-1.5-2.8-2.6-3.9-1.1-1-2.4-1.8-3.8-2.2-1.4-.5-3-.7-4.6-.7-1.6 0-3.1.2-4.6.7-1.4.5-2.7 1.2-3.8 2.2-1.1 1-2 2.2-2.6 3.8-.6 1.5-1 3.3-1 5.3v2.3h23.9V431zm47.8-11.2c-4.7.4-8.6 1.3-11.7 2.5-3.1 1.2-5.4 2.4-7 3.4v37.6h-9.1v-52.5h8l1 7.7h.1c.9-.9 2.1-1.9 3.5-2.9s2.9-1.9 4.6-2.7c1.6-.8 3.4-1.5 5.2-2 1.8-.5 3.7-.8 5.5-.8v9.7zm38.5 38.4c-4.2 2.3-7.6 3.8-10.2 4.5-2.6.7-5 1-7.1 1-5.1 0-9.1-1.4-12.2-4.2-3-2.8-4.5-6.7-4.5-11.5 0-2.9.7-5.3 2-7.3s2.9-3.6 4.9-4.8c1.9-1.2 4-2.1 6.2-2.6s4.2-.8 6-.8h15.3v-4c0-3.7-1-6.2-3.1-7.7-2-1.4-5-2.2-8.8-2.2-1.8 0-4.1.3-6.7.8-2.6.5-5.3 1.9-8 4.1l-4.4-6.9c3.4-2.6 6.8-4.3 10.3-5.1 3.5-.8 6.7-1.2 9.6-1.2 6.8 0 11.9 1.5 15.2 4.5 3.3 3 5 7.6 5 13.8v34.7h-8l-1.1-4.9-.4-.2zm.3-18.3h-13.9c-1.1 0-2.3.1-3.6.3-1.3.2-2.5.5-3.7 1.1-1.1.5-2.1 1.3-2.8 2.4-.7 1.1-1.1 2.5-1.1 4.3 0 2.5.9 4.4 2.6 5.7 1.7 1.3 3.9 1.9 6.6 1.9 1.3 0 2.7-.2 4.2-.6s2.9-.9 4.2-1.4c1.4-.6 2.7-1.2 4-1.9 1.3-.7 2.4-1.3 3.5-1.9v-9.9zm51.9 22.1c-2 .7-4.2 1.2-6.4 1.4-2.2.2-3.9.4-4.9.4-5.6 0-9.6-1.3-12.1-3.8s-3.7-6.8-3.7-12.7V419h-7.4v-8.1h7.6l2.1-12.2h6.7v12.2h14.6v8.1H351v25.7c0 2.1.2 3.9.6 5.3.4 1.4.9 2.5 1.6 3.3.7.8 1.5 1.4 2.5 1.6 1 .3 2.1.4 3.4.4 1.2 0 2.5-.1 4-.3 1.4-.2 3-.4 4.6-.6l1.4 7.6zm18.3-67.1c0 1.6-.6 2.9-1.7 4s-2.5 1.7-4 1.7-2.8-.6-3.9-1.7-1.7-2.5-1.7-4c0-1.6.6-2.9 1.7-4s2.4-1.6 3.9-1.6c1.6 0 2.9.5 4 1.6 1.1 1.2 1.7 2.5 1.7 4zm-10.2 68.4v-52.5h9.1v52.5h-9.1zm65.1-18.5c0 3-.6 5.7-1.8 8.1-1.2 2.4-2.8 4.4-4.8 6-2 1.6-4.3 2.9-7 3.7-2.6.8-5.4 1.3-8.4 1.3s-5.9-.4-8.5-1.3c-2.6-.8-4.9-2.1-6.8-3.7-1.9-1.6-3.5-3.6-4.6-6-1.1-2.4-1.7-5.1-1.7-8.1v-15.2c0-3 .6-5.7 1.8-8.1 1.2-2.4 2.7-4.4 4.7-6 1.9-1.7 4.2-2.9 6.9-3.8 2.7-.9 5.5-1.3 8.4-1.3 3.2 0 6.1.4 8.8 1.3 2.7.9 5 2.2 6.9 3.8 1.9 1.7 3.4 3.7 4.5 6 1.1 2.4 1.6 5.1 1.6 8.1v15.2zm-9.1-13.6c0-2.2-.4-4.2-1.2-5.7-.8-1.6-1.8-2.9-3-3.8-1.2-1-2.6-1.7-4.1-2.1-1.5-.4-2.9-.6-4.3-.6-1.5 0-3 .2-4.4.6-1.5.4-2.8 1.1-4.1 2.1-1.2 1-2.2 2.3-3 3.8-.8 1.6-1.2 3.5-1.2 5.7V443c0 2.2.3 4.2 1 5.7.7 1.6 1.6 2.9 2.7 3.8 1.1 1 2.5 1.7 4 2.1 1.6.4 3.2.6 5 .6 1.4 0 2.9-.2 4.3-.6 1.5-.4 2.8-1.1 4.1-2.1 1.2-1 2.2-2.3 3-3.8.8-1.6 1.2-3.5 1.2-5.7v-11.8zm45.5-20.9c5.2 0 9.2 1.6 12.1 4.9 2.9 3.2 4.3 7.9 4.3 13.9v34.3H486v-33.1c0-4.1-.9-7-2.6-8.6-1.8-1.7-4-2.5-6.7-2.4-2.1 0-4.6.5-7.5 1.6-2.9 1.1-5.6 2.5-8.3 4.2v38.3h-9.1v-52.5h8l1.1 5.8c2.3-1.4 4.3-2.5 6.1-3.4 1.8-.8 3.4-1.5 4.8-1.9 1.4-.4 2.7-.7 3.8-.8 1.2-.3 2.2-.3 3.1-.3z"/><path class="st2" d="M527.6 410.3c3 0 6.1.4 9.3 1.2 3.1.8 5.9 2.6 8.4 5.3l-5.4 6.9c-2.3-2.2-4.5-3.5-6.5-4.1-2-.5-3.8-.8-5.3-.8-1.3 0-2.7.2-4.2.6-1.4.4-2.8 1.1-3.9 2.1-1.2 1-2.1 2.3-2.9 3.8-.7 1.6-1.1 3.5-1.1 5.7v11.8c0 2.2.4 4.2 1.1 5.7.7 1.6 1.6 2.9 2.8 3.8s2.4 1.7 3.9 2.1c1.4.4 2.9.6 4.4.6 1.6 0 3.4-.3 5.7-1 2.2-.6 4.1-1.8 5.8-3.4l5.6 6.4c-2.5 2.5-5.2 4.2-8.2 5.1-3 .9-6 1.4-9 1.4-3.1 0-5.9-.5-8.5-1.4-2.5-.9-4.7-2.2-6.6-3.8-1.9-1.6-3.3-3.6-4.3-5.9-1-2.3-1.5-4.8-1.5-7.6v-15.6c0-3 .6-5.6 1.7-8 1.1-2.4 2.6-4.4 4.6-6.1 1.9-1.7 4.1-3 6.6-3.9 2.1-.5 4.7-.9 7.5-.9zm68.2 34.5c0 3-.6 5.7-1.8 8.1-1.2 2.4-2.8 4.4-4.8 6-2 1.6-4.3 2.9-6.9 3.7-2.6.8-5.4 1.3-8.4 1.3s-5.9-.4-8.5-1.3c-2.6-.8-4.9-2.1-6.8-3.7-1.9-1.6-3.5-3.6-4.6-6-1.1-2.4-1.7-5.1-1.7-8.1v-15.2c0-3 .6-5.7 1.8-8.1 1.2-2.4 2.7-4.4 4.7-6 1.9-1.7 4.2-2.9 6.9-3.8 2.7-.9 5.5-1.3 8.4-1.3 3.2 0 6.1.4 8.8 1.3 2.7.9 5 2.2 6.9 3.8 1.9 1.7 3.4 3.7 4.5 6 1.1 2.4 1.6 5.1 1.6 8.1v15.2zm-9.1-13.6c0-2.2-.4-4.2-1.2-5.7-.8-1.6-1.8-2.9-3-3.8-1.2-1-2.6-1.7-4.1-2.1-1.5-.4-2.9-.6-4.3-.6-1.5 0-3 .2-4.4.6-1.5.4-2.8 1.1-4.1 2.1-1.2 1-2.2 2.3-3 3.8-.8 1.6-1.2 3.5-1.2 5.7V443c0 2.2.3 4.2 1 5.7.7 1.6 1.6 2.9 2.7 3.8 1.1 1 2.5 1.7 4 2.1 1.6.4 3.2.6 5 .6 1.4 0 2.9-.2 4.3-.6 1.5-.4 2.8-1.1 4.1-2.1 1.2-1 2.2-2.3 3-3.8.8-1.6 1.2-3.5 1.2-5.7v-11.8zm54.2 32.1l-1.1-5.4c-4.2 2.4-7.5 4-10 4.8-2.5.8-4.7 1.1-6.6 1.1-2.5 0-4.9-.4-7-1.1-2.2-.7-4-1.9-5.6-3.4-1.6-1.5-2.8-3.5-3.7-5.8-.9-2.4-1.3-5.2-1.3-8.4V429c0-3 .5-5.6 1.4-7.9 1-2.3 2.3-4.3 3.9-5.9 1.7-1.6 3.6-2.8 5.9-3.7 2.3-.8 4.7-1.3 7.2-1.3 1.9 0 4.1.2 6.7.6s5.6 1.2 9 2.3v-25.7h9.1v75.8h-7.9zm-1-41.2c-2.8-1-5.5-1.8-7.9-2.4-2.5-.6-4.8-.9-7-.9-2.8-.1-5.2.8-7.2 2.5s-3 4.7-3 8.8v14.5c0 4 .8 6.8 2.5 8.3 1.7 1.5 4 2.3 6.8 2.3 1 0 2.1-.2 3.5-.5 1.3-.3 2.7-.8 4.1-1.3 1.4-.6 2.8-1.2 4.2-2 1.4-.7 2.7-1.5 3.9-2.4v-26.9zm27.9 18.3v3.5c0 2.1.4 3.9 1.1 5.3.7 1.4 1.7 2.6 2.9 3.6s2.6 1.6 4.2 2.1c1.6.4 3.2.6 4.9.6 1.8 0 3.8-.4 6.1-1.1 2.3-.7 4.6-2.1 6.8-4.1l5.7 6.2c-2.7 2.8-5.7 4.6-8.9 5.7-3.3 1-6.6 1.5-9.9 1.5-3 0-5.8-.4-8.5-1.2-2.7-.8-5-2-7-3.6s-3.6-3.6-4.8-6c-1.2-2.4-1.7-5.2-1.7-8.4v-13.9c0-3.1.5-5.9 1.6-8.5 1.1-2.5 2.5-4.7 4.4-6.5 1.9-1.8 4.1-3.1 6.7-4.1 2.6-1 5.4-1.4 8.5-1.4 3.1 0 6 .5 8.6 1.4 2.6.9 4.8 2.2 6.7 3.9 1.9 1.7 3.3 3.8 4.3 6.2 1 2.4 1.5 5.2 1.5 8.2v10.4h-33.2zm24-9.4c0-2.2-.3-4.1-1-5.6-.6-1.6-1.5-2.8-2.6-3.9-1.1-1-2.4-1.8-3.8-2.2-1.4-.5-3-.7-4.6-.7-1.6 0-3.1.2-4.5.7-1.4.5-2.7 1.2-3.8 2.2-1.1 1-2 2.2-2.6 3.8-.6 1.5-1 3.3-1 5.3v2.3h23.9V431z"/><path class="st3" d="M134.6 444.8c0 3-.6 5.7-1.8 8.1-1.2 2.4-2.8 4.4-4.8 6-2 1.6-4.3 2.9-6.9 3.7-2.6.8-5.4 1.3-8.4 1.3s-5.9-.4-8.5-1.3c-2.6-.8-4.9-2.1-6.8-3.7-1.9-1.6-3.5-3.6-4.6-6-1.1-2.4-1.7-5.1-1.7-8.1v-15.2c0-3 .6-5.7 1.8-8.1 1.2-2.4 2.7-4.4 4.7-6 1.9-1.7 4.2-2.9 6.9-3.8 2.7-.9 5.5-1.3 8.4-1.3 3.2 0 6.1.4 8.8 1.3 2.7.9 5 2.2 6.9 3.8 1.9 1.7 3.4 3.7 4.5 6 1.1 2.4 1.6 5.1 1.6 8.1v15.2zm-9.1-13.6c0-2.2-.4-4.2-1.2-5.7-.8-1.6-1.8-2.9-3-3.8-1.2-1-2.6-1.7-4.1-2.1-1.5-.4-2.9-.6-4.3-.6-1.5 0-3 .2-4.4.6-1.5.4-2.8 1.1-4.1 2.1-1.2 1-2.2 2.3-3 3.8-.8 1.6-1.2 3.5-1.2 5.7V443c0 2.2.3 4.2 1 5.7.7 1.6 1.6 2.9 2.7 3.8 1.1 1 2.5 1.7 4 2.1 1.6.4 3.2.6 5 .6 1.4 0 2.9-.2 4.3-.6 1.5-.4 2.8-1.1 4.1-2.1 1.2-1 2.2-2.3 3-3.8.8-1.6 1.2-3.5 1.2-5.7v-11.8z"/></g></svg>